<svg height="496pt" viewBox="0 0 496 496" width="496pt" xmlns="http://www.w3.org/2000/svg"><path d="m416 80-64 64-16-16-1.121094-.160156c.640625-5.199219 1.042969-10.558594 1.042969-15.839844h.078125l54.398438-54.398438zm0 0" fill="#969faa"/><path d="m160 112h.078125c0 5.28125.402344 10.640625 1.042969 15.839844l-1.121094.160156-16 16-64-64 25.601562-22.398438zm0 0" fill="#969faa"/><path d="m390.398438 57.601562-54.398438 54.398438h-.078125c.078125-.878906.078125-1.761719.078125-2.640625v-17.597656c0-23.523438 5.441406-46.722657 16-67.761719zm0 0" fill="#fcd770"/><path d="m160 112-54.398438-54.398438 38.398438-33.601562c10.558594 21.039062 16 44.238281 16 67.761719v17.597656c0 .878906 0 1.761719.078125 2.640625zm0 0" fill="#fcd770"/><path d="m296 8-48 48-48-48zm0 0" fill="#969faa"/><g fill="#ccd1d9"><path d="m296 8 56 16c-10.558594 21.039062-16 44.238281-16 67.761719v12.238281l-88-48zm0 0"/><path d="m248 56-88 48v-12.238281c0-23.523438-5.441406-46.722657-16-67.761719l56-16zm0 0"/><path d="m248 96 84.320312 46.078125c-.242187 1.363281-.558593 2.640625-.878906 4l-11.441406 45.921875h-72zm0 0"/></g><path d="m336 104v5.359375c0 .878906 0 1.761719-.078125 2.640625 0 5.28125-.402344 10.640625-1.042969 15.839844-.640625 4.800781-1.4375 9.519531-2.558594 14.238281l-84.320312-46.078125v-40zm0 0" fill="#656d78"/><path d="m248 96v96h-72l-11.441406-45.921875c-.320313-1.359375-.636719-2.636719-.878906-4zm0 0" fill="#ccd1d9"/><path d="m248 56v40l-84.320312 46.078125c-1.121094-4.71875-1.917969-9.4375-2.558594-14.238281-.640625-5.199219-1.042969-10.558594-1.042969-15.839844-.078125-.878906-.078125-1.761719-.078125-2.640625v-5.359375zm0 0" fill="#656d78"/><path d="m344 408c0 5.601562-.238281 11.199219-.71875 16.71875-3.441406 3.042969-18.320312 15.28125-39.28125 15.28125s-35.839844-12.238281-39.28125-15.28125c-.480469-5.519531-.71875-11.117188-.71875-16.71875v-32l-.160156-1.28125c19.761718-3.117188 34.398437-11.199219 38.800781-13.839844 2.160156 12.320313 4.480469 24.5625 7.121094 36.800782l2.238281 10.320312c10.640625 0 21.199219-.800781 31.601562-2.398438zm0 0" fill="#ccd1d9"/><path d="m343.28125 424.71875c-1.28125 15.519531-4.480469 30.800781-9.359375 45.601562l-5.921875 17.679688h-48l-5.921875-17.679688c-4.878906-14.800781-8.078125-30.082031-9.359375-45.601562 3.441406 3.042969 18.320312 15.28125 39.28125 15.28125s35.839844-12.238281 39.28125-15.28125zm0 0" fill="#656d78"/><path d="m192 440c-20.960938 0-35.839844-12.238281-39.28125-15.28125-.480469-5.519531-.71875-11.117188-.71875-16.71875l.398438-2.398438c10.402343 1.597657 20.960937 2.398438 31.601562 2.398438l2.238281-10.320312c2.640625-12.238282 4.960938-24.480469 7.121094-36.800782 4.402344 2.640625 19.039063 10.722656 38.800781 13.839844l-.160156 1.28125v32c0 5.601562-.238281 11.199219-.71875 16.71875-3.441406 3.042969-18.320312 15.28125-39.28125 15.28125zm0 0" fill="#ccd1d9"/><path d="m231.28125 424.71875c-1.28125 15.519531-4.480469 30.800781-9.359375 45.601562l-5.921875 17.679688h-48l-5.921875-17.679688c-4.878906-14.800781-8.078125-30.082031-9.359375-45.601562 3.441406 3.042969 18.320312 15.28125 39.28125 15.28125s35.839844-12.238281 39.28125-15.28125zm0 0" fill="#656d78"/><path d="m295.441406 312.480469c-2-16.160157-3.601562-32.402344-4.800781-48.640625-1.199219-15.917969-1.921875-31.917969-2.320313-47.839844-.242187-8-.320312-16-.320312-24h-80c0 8-.078125 16-.320312 24-.398438 15.921875-1.121094 31.921875-2.320313 47.839844-1.199219 16.238281-2.800781 32.480468-4.800781 48.640625-2 16.160156-4.398438 32.320312-7.199219 48.398437 4.402344 2.640625 19.039063 10.722656 38.800781 13.839844 4.960938.800781 10.320313 1.28125 15.839844 1.28125s10.878906-.480469 15.839844-1.28125c19.761718-3.117188 34.398437-11.199219 38.800781-13.839844-2.800781-16.078125-5.199219-32.238281-7.199219-48.398437zm0 0" fill="#969faa"/><path d="m407.28125 355.121094 16.71875 20.878906-7.359375 4.238281c-8 4.5625-16.242187 8.5625-24.640625 12v-.238281l-5.839844-7.039062c-22.480468-26.882813-38.238281-58.800782-46.160156-92.960938-4-17.121094-9.921875-33.601562-17.601562-49.199219-7.757813-15.601562-17.277344-30.320312-28.558594-43.761719l-5.839844-7.039062h32c15.839844 15.839844 28.320312 34.71875 36.640625 55.519531l26.238281 65.761719c6.082032 15.039062 14.242188 29.199219 24.402344 41.839844zm0 0" fill="#ff826e"/><path d="m208 192-5.839844 7.039062c-11.28125 13.441407-20.800781 28.160157-28.558594 43.761719-7.679687 15.597657-13.601562 32.078125-17.601562 49.199219-7.921875 34.160156-23.679688 66.078125-46.160156 92.960938l-5.839844 7.039062v.238281c-8.398438-3.4375-16.640625-7.4375-24.640625-12l-7.359375-4.238281 16.71875-20.878906c10.160156-12.640625 18.320312-26.800782 24.402344-41.839844l26.238281-65.761719c8.320313-20.800781 20.800781-39.679687 36.640625-55.519531zm0 0" fill="#ff826e"/><path d="m392 392.238281c-15.601562 6.402344-31.839844 10.882813-48.398438 13.363281-10.402343 1.597657-20.960937 2.398438-31.601562 2.398438l-2.238281-10.320312c-2.640625-12.238282-4.960938-24.480469-7.121094-36.800782-2.800781-16.078125-5.199219-32.238281-7.199219-48.398437-2-16.160157-3.601562-32.402344-4.800781-48.640625-1.199219-15.917969-1.921875-31.917969-2.320313-47.839844-.242187-8-.320312-16-.320312-24l5.839844 7.039062c11.28125 13.441407 20.800781 28.160157 28.558594 43.761719 7.679687 15.597657 13.601562 32.078125 17.601562 49.199219 7.921875 34.160156 23.679688 66.078125 46.160156 92.960938l5.839844 7.039062zm0 0" fill="#fc6e51"/><path d="m152.398438 405.601562c-16.558594-2.480468-32.796876-6.960937-48.398438-13.363281v-.238281l5.839844-7.039062c22.480468-26.882813 38.238281-58.800782 46.160156-92.960938 4-17.121094 9.921875-33.601562 17.601562-49.199219 7.757813-15.601562 17.277344-30.320312 28.558594-43.761719l5.839844-7.039062c0 8-.078125 16-.320312 24-.398438 15.921875-1.121094 31.921875-2.320313 47.839844-1.199219 16.238281-2.800781 32.480468-4.800781 48.640625-2 16.160156-4.398438 32.320312-7.199219 48.398437-2.160156 12.320313-4.480469 24.5625-7.121094 36.800782l-2.238281 10.320312c-10.640625 0-21.199219-.800781-31.601562-2.398438zm0 0" fill="#fc6e51"/><path d="m339.097656 480 2.367188-7.113281c6.542968-19.605469 9.933594-39.984375 10.359375-60.621094 24.078125-4.464844 47.375-12.882813 68.769531-25.105469l15.496094-8.855468-22.53125-28.167969c-9.671875-12.097657-17.496094-25.503907-23.222656-39.847657l-26.289063-65.746093c-8.191406-20.464844-20.125-38.789063-35.246094-54.726563l10.445313-41.769531c.378906-1.496094.648437-3.007813.976562-4.503906l11.777344 11.769531 75.703125-75.703125-71.78125-62.808594-57.730469-16.496093-98.191406-.304688-59.921875 16.800781-71.78125 62.808594 75.703125 75.703125 11.785156-11.785156c.328125 1.503906.605469 3.015625.984375 4.511718l10.4375 41.769532c-15.117187 15.933594-27.054687 34.261718-35.246093 54.734375l-26.289063 65.730469c-5.75 14.375-13.558594 27.789062-23.222656 39.855468l-22.527344 28.167969 15.492187 8.855469c21.386719 12.214844 44.683594 20.640625 68.769532 25.105468.425781 20.636719 3.816406 41.015626 10.359375 60.621094l2.359375 7.121094h-156.902344v16h496v-16zm-221.792968-422.007812 23.832031-20.855469c7.101562 17.277343 10.863281 35.960937 10.863281 54.640625v.910156zm52.207031 71.703124c-.96875-6.742187-1.511719-13.542968-1.511719-20.351562v-.589844l72-39.273437v21.777343zm156.976562.007813-70.488281-38.457031v-21.765625l72 39.273437v.589844c0 6.808594-.542969 13.609375-1.511719 20.359375zm-46.382812 70.296875c.03125 4.046875.078125 8.097656.160156 12.136719-4.496094 3.679687-16.28125 11.863281-32.265625 11.863281-15.808594 0-27.710938-8.207031-32.265625-11.886719.082031-4.042969.128906-8.074219.160156-12.113281zm-64.960938 30.992188c7.953125 4.535156 19.238281 9.007812 32.855469 9.007812s24.902344-4.472656 32.855469-9.007812c.359375 9.128906.847656 18.253906 1.464843 27.367187-.25.25-13.953124 13.640625-34.320312 13.640625-20.039062 0-33.953125-13.28125-34.320312-13.640625.617187-9.121094 1.105468-18.238281 1.464843-27.367187zm-2.898437 46.199218c7.984375 5.074219 20.304687 10.808594 35.753906 10.808594s27.769531-5.734375 35.753906-10.808594c.902344 10.464844 1.988282 20.914063 3.230469 31.34375-6.464844 4.105469-20.570313 11.464844-38.984375 11.464844s-32.519531-7.359375-38.984375-11.464844c1.242187-10.429687 2.328125-20.878906 3.230469-31.34375zm84.066406-61.933594c17.039062 23.429688 29.382812 50.308594 35.894531 78.542969 7.992188 34.632813 24.136719 67.359375 46.65625 94.847657-19.40625 6.765624-39.792969 10.589843-60.40625 11.253906l-.832031-3.886719c-12.730469-59.351563-19.855469-120.046875-21.3125-180.757813zm-40.3125-31.257812v-74.519531l67.222656 36.664062-9.460937 37.855469zm98.863281-146.863281 23.832031 20.855469-34.695312 34.695312v-.910156c0-18.679688 3.761719-37.363282 10.863281-54.640625zm-26.824219 53.40625-66.816406-36.445313 37.113282-37.113281 42.503906 12.144531c-8.253906 19.351563-12.640625 40.375-12.800782 61.414063zm-80.039062-45.855469-28.6875-28.6875h57.375zm-13.214844 9.410156-66.816406 36.445313c-.167969-21.039063-4.554688-42.0625-12.792969-61.414063l42.503907-12.144531zm5.214844 55.382813v74.519531h-57.761719l-9.453125-37.863281zm-61.609375 286.527343-.832031 3.886719c-20.613282-.65625-41.007813-4.488281-60.40625-11.253906 22.511718-27.488281 38.65625-60.214844 46.648437-94.847656 6.511719-28.234375 18.855469-55.113281 35.894531-78.546875-1.464843 60.722656-8.589843 121.417968-21.304687 180.761718zm28.472656-70.230468c9.320313 4.855468 23.59375 10.222656 41.136719 10.222656s31.816406-5.367188 41.136719-10.222656c1.398437 10.285156 3 20.550781 4.726562 30.78125-8.40625 4.320312-25.359375 11.441406-45.863281 11.441406-20.375 0-37.40625-7.144531-45.855469-11.457031 1.71875-10.230469 3.320313-20.480469 4.71875-30.765625zm33.136719 82.222656v-24.335938c2.617188.191407 5.265625.335938 8 .335938s5.382812-.144531 8-.335938v24.335938c0 22.105469 3.535156 43.929688 10.527344 64.886719l2.375 7.113281h-41.796875l2.367187-7.113281c6.992188-20.957031 10.527344-42.78125 10.527344-64.886719zm41.703125 59.832031c-2.933594-8.808593-5.117187-17.800781-6.726563-26.894531 7.609376 3.773438 17.398438 7.0625 29.023438 7.0625s21.414062-3.289062 29.023438-7.0625c-1.609376 9.09375-3.792969 18.085938-6.726563 26.894531l-4.058594 12.167969h-36.476562zm53.785156-47.070312c-5.023437 3.910156-16.410156 11.238281-31.488281 11.238281-14.910156 0-26.40625-7.351562-31.488281-11.273438-.289063-4.230468-.511719-8.46875-.511719-12.726562v-26.695312c10.023438-2.226563 18.457031-5.464844 24.695312-8.335938 1.640626 8.824219 3.394532 17.632812 5.273438 26.398438l3.558594 16.632812h6.472656c7.953125 0 15.863281-.535156 23.734375-1.398438-.070313 2.054688-.109375 4.109376-.246094 6.160157zm39.984375-104.546875c6.320313 15.816406 14.925782 30.585937 25.582032 43.914062l10.855468 13.558594c-5.6875 3.214844-11.542968 6.066406-17.496094 8.703125l-2.101562-2.527344c-21.550781-25.855469-36.945312-56.863281-44.511719-89.671875-7.554687-32.710937-22.417969-63.695312-43.015625-90.199218h11.679688c14.078125 14.648437 25.152344 31.566406 32.71875 50.480468zm-23.472656-183.527344-8.742188-8.742188c.253907-2.808593.445313-5.625.558594-8.441406l46.953125-46.953125 13.535157 11.839844zm-208 0-52.296875-52.296875 13.535156-11.839844 46.953125 46.953125c.113282 2.816406.296875 5.632813.5625 8.441406zm-49.054688 227.449219c10.640626-13.304688 19.238282-28.082031 25.582032-43.914063l26.289062-65.734375c7.566406-18.921875 18.640625-35.839843 32.71875-50.488281h11.679688c-20.597656 26.503906-35.460938 57.488281-43.015625 90.199219-7.566407 32.808593-22.960938 63.816406-44.511719 89.671875l-2.101562 2.527344c-5.945313-2.636719-11.808594-5.488282-17.496094-8.703126zm89.054688 55.863281h6.472656l3.558594-16.632812c1.878906-8.773438 3.632812-17.574219 5.273438-26.398438 6.246093 2.878906 14.679687 6.109375 24.695312 8.335938v26.695312c0 4.273438-.222656 8.519531-.511719 12.761719-5.023437 3.910156-16.410156 11.238281-31.488281 11.238281-14.910156 0-26.40625-7.351562-31.488281-11.273438-.136719-2.03125-.175781-4.078124-.246094-6.117187 7.871094.855469 15.78125 1.390625 23.734375 1.390625zm-14.296875 51.832031c-2.933594-8.808593-5.117187-17.800781-6.726563-26.894531 7.609376 3.773438 17.398438 7.0625 29.023438 7.0625s21.414062-3.289062 29.023438-7.0625c-1.609376 9.09375-3.792969 18.085938-6.726563 26.894531l-4.058594 12.167969h-36.476562zm0 0"/></svg>