<svg height="490pt" viewBox="-93 0 490 490.136" width="490pt" xmlns="http://www.w3.org/2000/svg"><path d="m143.898438 107.894531 24.640624 46.242188-8 88-2.320312-.878907-39.597656-71.363281 1.917968.242188zm0 0" fill="#fcd770"/><path d="m87.578125 114.054688 31.042969 55.839843-62.082032-7.757812-2.238281 1.277343-31.679687-56.238281 1.917968-1.039062zm0 0" fill="#e6e9ed"/><path d="m158.21875 241.257812-77.679688-31.121093-26.238281-46.722657 2.238281-1.277343 62.082032 7.757812zm0 0" fill="#fcd770"/><path d="m143.898438 107.894531-23.359376 62.242188-1.917968-.242188-31.042969-55.839843.960937.082031 24-64 .402344-.242188zm0 0" fill="#e6e9ed"/><path d="m104.539062 34.136719 8.402344 15.757812-.402344.242188-24 64-.960937-.082031-63.039063-7.917969-1.917968 1.039062-14.082032-25.039062 16-72zm0 0" fill="#fcd770"/><path d="m280.539062 274.136719c8.800782 0 16 7.199219 16 16 0 4.398437-1.757812 8.398437-4.71875 11.277343-2.878906 2.960938-6.878906 4.722657-11.28125 4.722657h-24v-32zm0 0" fill="#3bafda"/><path d="m160.539062 274.136719v32h-104c-8.800781 0-16-7.199219-16-16 0-4.402344 1.761719-8.402344 4.722657-11.28125 2.878906-2.960938 6.878906-4.71875 11.277343-4.71875zm0 0" fill="#3bafda"/><path d="m240.539062 402.136719v80h-48v-120l24-24 8 8v40c0 4.398437 1.761719 8.398437 4.722657 11.277343 2.878906 2.960938 6.878906 4.722657 11.277343 4.722657zm0 0" fill="#3bafda"/><path d="m144.539062 362.136719v120h-48v-120l24-24zm0 0" fill="#3bafda"/><g fill="#69d6f4"><path d="m288.539062 362.136719v80l-48 40v-80c8.800782 0 16-7.199219 16-16v-48zm0 0"/><path d="m96.539062 362.136719v120l-48-40v-80l32-24zm0 0"/><path d="m192.539062 362.136719v120h-48v-120l17.441407-17.441407c.71875 1.761719 1.917969 3.359376 3.28125 4.71875 2.878906 2.960938 6.878906 4.722657 11.277343 4.722657 2.320313 0 4.5625-.480469 6.5625-1.441407zm0 0"/><path d="m216.539062 338.136719-24 24-9.4375-9.441407c5.519532-2.480468 9.4375-8.078124 9.4375-14.558593v-16c0-4.402344 1.761719-8.402344 4.722657-11.28125 2.878906-2.960938 6.878906-4.71875 11.277343-4.71875 8.800782 0 16 7.199219 16 16v24zm0 0"/><path d="m161.980469 344.695312-17.441407 17.441407-24-24-24 24-16-24v-32h80v32c0 2.320312.480469 4.558593 1.441407 6.558593zm0 0"/></g><path d="m176.539062 274.136719h80v112c0 8.800781-7.199218 16-16 16-4.398437 0-8.398437-1.761719-11.277343-4.722657-2.960938-2.878906-4.722657-6.878906-4.722657-11.277343v-64c0-8.800781-7.199218-16-16-16-4.398437 0-8.398437 1.757812-11.277343 4.71875-2.960938 2.878906-4.722657 6.878906-4.722657 11.28125v16c0 6.480469-3.917968 12.078125-9.4375 14.558593-2 .960938-4.242187 1.441407-6.5625 1.441407-4.398437 0-8.398437-1.761719-11.277343-4.722657-1.363281-1.359374-2.5625-2.957031-3.28125-4.71875-.960938-2-1.441407-4.238281-1.441407-6.558593v-64zm0 0" fill="#cf9e76"/><path d="m280.539062 314.136719c13.234376 0 24-10.769531 24-24 0-13.234375-10.765624-24-24-24h-99.296874l-12.765626-22.976563 8.238282-90.679687-66.679688-125.046875-91.4375-27.433594-18.5312498 83.390625 74.8828128 133.128906 77.695312 31.082031 10.304688 18.535157h-106.410157c-13.230468 0-24 10.765625-24 24 0 13.230469 10.769532 24 24 24h16v20l-32 24v87.75l53.105469 44.25h149.792969l53.101562-44.25v-87.75l-32-24v-20zm-125.863281-95.832031-26.0625-46.914063 16.542969-44.101563 15.199219 28.503907zm-118.070312-102.601563 45.957031 5.746094 21.417969 38.550781-45.671875-5.710938zm60.367187-1.261719 17.0625-45.496094 21.089844 39.535157-16.714844 44.558593zm-66.488281-94.167968 68.566406 20.566406 4.953125 9.28125-17.230468 45.949218-23.242188-41.824218-13.984375 7.777344 23.394531 42.097656-46.089844-5.761719-9.832031-17.480469zm55.648437 183.488281-18.066406-32.121094 45.546875 5.695313 26.726563 48.105468zm202.40625 86.375c0 4.414062-3.589843 8-8 8h-16v-16h16c4.410157 0 8 3.582031 8 8zm-56 184h-32v-108.6875l16-16v36.6875c0 10.414062 6.714844 19.214843 16 22.527343zm-16-147.3125-16.648437 16.648437c.402344-1.730468.648437-3.496094.648437-5.335937v-16c0-4.417969 3.59375-8 8-8 4.410157 0 8 3.582031 8 8zm-35.742187 34.878906 3.742187 3.746094v108.6875h-32v-108.6875l8.847657-8.847657c4.152343 3.40625 9.378906 5.535157 15.152343 5.535157 1.457032 0 2.871094-.183594 4.257813-.433594zm-76.257813 3.746094 16-16 16 16v108.6875h-32zm-56-75.3125c0-4.417969 3.59375-8 8-8h96v16h-96c-4.40625 0-8-3.585938-8-8zm104 24v24c0 1.457031.183594 2.871093.433594 4.253906l-8.433594 8.433594-24-24-22.757812 22.761719-9.242188-13.875v-21.574219zm-96 52 22.03125-16.527344 9.96875 14.949219v100.496094l-32-26.671876zm224 0v72.246093l-32 26.671876v-56.390626c9.289063-3.3125 16-12.113281 16-22.527343v-32zm-32 20c0 4.414062-3.589843 8-8 8-4.40625 0-8-3.585938-8-8v-64c0-13.234375-10.765624-24-24-24-13.230468 0-24 10.765625-24 24v16c0 4.414062-3.589843 8-8 8-4.40625 0-8-3.585938-8-8v-56h80zm0 0"/></svg>