<svg height="512pt" viewBox="-114 0 512 512" width="512pt" xmlns="http://www.w3.org/2000/svg"><g fill-rule="evenodd"><path d="m241.996094 110c0-55-45-100-100-100s-100 45-100 100v200c0 55 45 100 100 100s100-45 100-100zm0 0" fill="#8eecf0"/><path d="m41.996094 310v-100c0-8.800781-7.199219-16-16-16-8.796875 0-16 7.199219-16 16v276c0 8.800781 7.203125 16 16 16 8.800781 0 16-7.199219 16-16zm0 0" fill="#db8c60"/><path d="m41.996094 440h200v32h-200zm0 0" fill="#ae5e3c"/><path d="m241.996094 310v176c0 8.800781 7.199218 16 16 16 8.800781 0 16-7.199219 16-16v-276c0-8.800781-7.199219-16-16-16-8.800782 0-16 7.199219-16 16zm0 0" fill="#db8c60"/></g><path d="m257.996094 184c-2.0625 0-4.070313.25-6 .707031v-74.707031c0-60.652344-49.34375-110-109.992188-110-.03125 0-.058594 0-.089844 0-15.160156 0-29.902343 3.101562-43.816406 9.214844-5.054687 2.21875-7.351562 8.117187-5.132812 13.175781 2.222656 5.058594 8.121094 7.355469 13.179687 5.132813 11.363281-4.992188 23.394531-7.523438 35.777344-7.523438h.078125c49.625 0 90 40.375 90 90v200c0 49.625-40.375 90-90 90-49.628906 0-90-40.375-90-90v-200c0-14.03125 3.179688-27.496094 9.453125-40.019531 2.472656-4.9375.472656-10.945313-4.464844-13.417969-4.9375-2.476562-10.945312-.476562-13.417969 4.460938-7.675781 15.332031-11.570312 31.808593-11.570312 48.976562v74.707031c-1.929688-.457031-3.933594-.707031-6-.707031-14.335938 0-26 11.664062-26 26v276c0 14.335938 11.664062 26 26 26s26-11.664062 26-26v-4h180v4c0 14.335938 11.664062 26 26 26s26-11.664062 26-26v-276c-.003906-14.335938-11.667969-26-26.003906-26zm-226 302c0 3.253906-2.746094 6-6 6-3.25 0-6-2.746094-6-6v-276c0-3.253906 2.75-6 6-6 3.253906 0 6 2.746094 6 6zm20-24v-12h111.035156c5.523438 0 10-4.480469 10-10 0-5.523438-4.476562-10-10-10h-111.035156v-56.828125c19.925781 28.300781 52.839844 46.828125 90 46.828125 37.164062 0 70.078125-18.527344 90-46.828125v56.828125c-5.523438 0-10 4.476562-10 10 0 5.519531 4.476562 10 10 10v12zm212 24c0 3.253906-2.746094 6-6 6-3.25 0-6-2.746094-6-6v-276c0-3.253906 2.75-6 6-6 3.253906 0 6 2.746094 6 6zm0 0"/><path d="m70.078125 50.691406c2.625 0 5.246094-1.027344 7.210937-3.070312l.324219-.332032c3.847657-3.960937 3.761719-10.289062-.199219-14.140624-3.957031-3.851563-10.289062-3.761719-14.140624.195312l-.402344.417969c-3.828125 3.980469-3.703125 10.3125.277344 14.140625 1.941406 1.863281 4.4375 2.789062 6.929687 2.789062zm0 0"/><path d="m124.925781 242.070312c1.953125 1.953126 4.515625 2.929688 7.074219 2.929688s5.117188-.976562 7.070312-2.929688l49.996094-50c3.90625-3.902343 3.90625-10.234374 0-14.140624-3.902344-3.90625-10.234375-3.90625-14.140625 0l-50 49.996093c-3.902343 3.90625-3.902343 10.238281 0 14.144531zm0 0"/><path d="m114.921875 177.929688-19.996094 19.996093c-3.90625 3.90625-3.90625 10.238281 0 14.144531 1.953125 1.953126 4.511719 2.929688 7.070313 2.929688s5.121094-.976562 7.070312-2.929688l20-20c3.902344-3.902343 3.902344-10.234374 0-14.140624-3.90625-3.90625-10.238281-3.90625-14.144531 0zm0 0"/><path d="m192.03125 430h-.269531c-5.523438 0-10 4.476562-10 10 0 5.519531 4.476562 10 10 10h.269531c5.523438 0 10-4.480469 10-10 0-5.523438-4.476562-10-10-10zm0 0"/></svg>