<?xml version="1.0" encoding="iso-8859-1"?>
<!-- Generator: Adobe Illustrator 21.0.0, SVG Export Plug-In . SVG Version: 6.00 Build 0)  -->
<svg xmlns="http://www.w3.org/2000/svg" xmlns:xlink="http://www.w3.org/1999/xlink" version="1.1" id="Capa_1" x="0px" y="0px" viewBox="0 0 512 512" style="enable-background:new 0 0 512 512;" xml:space="preserve" width="512" height="512">
<g>
	<g>
		<circle style="fill:#68FCDF;" cx="256" cy="256" r="256"/>
		<path style="fill:#10E2C4;" d="M512,256c0,141.38-114.62,256-256,256S0,397.38,0,256c0-46.22,12.25-89.57,33.68-127    C77.8,206.07,160.84,258,256,258s178.21-51.93,222.32-129C499.75,166.43,512,209.78,512,256z"/>
		<path style="fill:#1ABA9F;" d="M481.26,377.7v0.01C437.97,457.68,353.32,512,256,512S74.03,457.68,30.74,377.71v-0.01H481.26z"/>
	</g>
	<g>
		<g>
			<g>
				<path style="fill:#545D7A;" d="M292.589,179.532h-35c0-16.72-13.6-30.33-30.32-30.33h-14.86c-16.72,0-30.33,13.61-30.33,30.33      h-35c0-36.02,29.31-65.33,65.33-65.33h14.86C263.288,114.202,292.589,143.512,292.589,179.532z"/>
				<path style="fill:#474F6F;" d="M292.589,179.532h-35c0-16.72-13.6-30.33-30.32-30.33h-9.77v-35h9.77      C263.288,114.202,292.589,143.512,292.589,179.532z"/>
				<path style="fill:#474F6F;" d="M275.089,179.532h-17.5c0-16.72-13.6-30.33-30.32-30.33h-14.86c-16.72,0-30.33,13.61-30.33,30.33      h-17.5c0-26.42,21.41-47.83,47.83-47.83h14.85C253.679,131.702,275.089,153.112,275.089,179.532z"/>
				<path style="fill:#323B5A;" d="M275.089,179.532h-17.5c0-16.72-13.6-30.33-30.32-30.33h-9.77v-17.5h9.76      C253.679,131.702,275.089,153.112,275.089,179.532z"/>
			</g>
			<g>
				<path style="fill:#545D7A;" d="M346.38,218.36l-41.82,289.03c-11.79,2.27-23.88,3.73-36.19,4.31h-24.78      c-2.02-0.09-4.03-0.22-6.04-0.36c-1.27-0.09-2.53-0.19-3.79-0.3s-2.52-0.22-3.78-0.35s-2.51-0.26-3.76-0.41      c-1.25-0.14-2.5-0.3-3.74-0.46c-0.91-0.12-1.82-0.24-2.72-0.37c-0.68-0.09-1.35-0.19-2.02-0.29c-0.08-0.02-0.16-0.03-0.24-0.04      c-0.88-0.13-1.75-0.27-2.63-0.41c-1.18-0.19-2.35-0.39-3.52-0.59c-0.01,0-0.01,0-0.01,0c-1.23-0.22-2.45-0.44-3.67-0.68      c-1.22-0.23-2.44-0.47-3.65-0.72c-1.15-0.24-2.29-0.48-3.43-0.74c-0.14-0.02-0.27-0.05-0.4-0.08c-1.14-0.26-2.28-0.52-3.42-0.79      c-2.41-0.57-4.8-1.17-7.18-1.81c-2.37-0.64-4.74-1.31-7.09-2.01c-1.17-0.35-2.34-0.71-3.51-1.08c-2.34-0.73-4.66-1.5-6.96-2.3      c-1.16-0.4-2.31-0.81-3.45-1.23c-1.15-0.41-2.29-0.84-3.43-1.27c-1.14-0.43-2.27-0.87-3.4-1.32c-1.13-0.44-2.26-0.9-3.38-1.36      c-1.91-0.79-3.8-1.6-5.68-2.43c-0.66-0.29-1.32-0.58-1.97-0.88c-0.85-0.38-1.69-0.77-2.53-1.16c-0.66-0.31-1.33-0.62-1.99-0.94      c-0.55-0.26-1.1-0.52-1.64-0.79c-1.82-0.87-3.62-1.77-5.4-2.69c-0.54-0.28-1.07-0.55-1.6-0.83c-0.66-0.34-1.32-0.69-1.97-1.04      c-0.73-0.39-1.45-0.78-2.17-1.17c-0.56-0.31-1.11-0.61-1.66-0.92c-0.71-0.39-1.42-0.79-2.12-1.19c-1.23-0.7-2.45-1.4-3.66-2.12      L88.62,218.36H346.38z"/>
				<path style="fill:#474F6F;" d="M346.38,218.36l-41.82,289.03c-11.79,2.27-23.88,3.73-36.19,4.31h-24.78      c-2.02-0.09-4.03-0.22-6.04-0.36c-6.76-0.48-13.45-1.22-20.05-2.22V218.36H346.38z"/>
				<g>
					<polygon style="fill:#474F6F;" points="181.14,481.702 156.898,481.702 127.146,247.202 163.289,247.202      "/>
					<polygon style="fill:#474F6F;" points="235.572,247.202 229.622,481.702 205.382,481.702 199.432,247.202      "/>
					<polygon style="fill:#323B5A;" points="278.107,481.702 253.865,481.702 271.716,247.202 307.859,247.202      "/>
				</g>
				<polygon style="fill:#323B5A;" points="235.572,247.202 229.622,481.702 217.502,481.702 217.502,247.202     "/>
			</g>
			<rect x="64.239" y="165.912" style="fill:#474F6F;" width="306.52" height="52.45"/>
			<rect x="217.498" y="165.912" style="fill:#323B5A;" width="153.26" height="52.45"/>
		</g>
		<g>
			<path style="fill:#FF9F00;" d="M476.45,352.74v33.47c-2.3,3.9-4.71,7.73-7.21,11.49C423.36,466.6,344.98,512,256,512h-18.45     V321.97H348.5l12.06,30.77H476.45z"/>
			<path style="fill:#FFD112;" d="M360.58,352.74v136.99C328.65,504.04,293.25,512,256,512h-18.45V321.97H348.5l12.06,30.77H360.58z     "/>
			<path style="fill:#FFD112;" d="M469.24,397.7C423.36,466.6,344.98,512,256,512h-18.45V397.7H469.24z"/>
			<path style="fill:#FFE955;" d="M360.58,397.7v92.03C328.65,504.04,293.25,512,256,512h-18.45V397.7H360.58z"/>
		</g>
	</g>
</g>















</svg>
